<svg xmlns="http://www.w3.org/2000/svg" viewBox="0 0 71.28 25.57"><defs><style>.cls-1,.cls-8{fill:#fff;}.cls-1,.cls-2{stroke:#000091;stroke-miterlimit:10;}.cls-2,.cls-3,.cls-4,.cls-5,.cls-6,.cls-7{fill:none;}.cls-2{stroke-width:0.5px;}.cls-3{stroke:#1480c3;}.cls-3,.cls-4,.cls-5,.cls-6,.cls-7{stroke-linecap:round;stroke-linejoin:round;}.cls-4{stroke:#00984c;}.cls-5{stroke:#e33a55;}.cls-6{stroke:#f7ad33;}.cls-7{stroke:#1d1d1b;}.cls-9{fill:#000091;}</style></defs><g id="Calque_2" data-name="Calque 2"><g id="Calque_3" data-name="Calque 3"><rect class="cls-1" x="0.5" y="0.5" width="70.28" height="24.57"/><circle class="cls-2" cx="23.87" cy="10.23" r="4.81"/><circle class="cls-2" cx="29.55" cy="16.12" r="4.81"/><circle class="cls-2" cx="34.95" cy="10.02" r="4.81"/><circle class="cls-2" cx="40.5" cy="16.12" r="4.81"/><circle class="cls-2" cx="46.21" cy="10.23" r="4.81"/><path class="cls-3" d="M19.07,10.23a4.8,4.8,0,0,1,4.8-4.8"/><path class="cls-4" d="M40.5,20.9a4.82,4.82,0,0,1-4.81-4.81"/><path class="cls-5" d="M46.21,5.43A4.8,4.8,0,0,1,51,10.23"/><path class="cls-6" d="M34.36,16.12a4.81,4.81,0,0,1-4.81,4.81"/><path class="cls-7" d="M31.55,6.62a4.8,4.8,0,0,1,6.8,0"/><rect class="cls-8" x="6.51" y="9.19" width="56.87" height="7.42"/><path class="cls-9" d="M7.64,10.27H9.82a2.8,2.8,0,1,1,0,5.6H7.64Zm.91.84V15H9.82a2,2,0,1,0,0-3.92Z"/><path class="cls-9" d="M15.38,10.27h1.21l2.18,5.6h-1l-.59-1.57H14.76l-.59,1.57h-1Zm1.52,3.25L16,11.1l-.92,2.42Z"/><path class="cls-9" d="M18.66,10.27h4.52v.84h-1.8v4.76h-.92V11.11h-1.8Z"/><path class="cls-9" d="M25.28,10.27H26.5l2.18,5.6h-1l-.59-1.57H24.67l-.6,1.57h-1Zm1.53,3.25-.92-2.42L25,13.52Z"/><path class="cls-9" d="M29.72,10.27h.91V15h2.21v.84H29.72Z"/><path class="cls-9" d="M35.49,13.42v2.45h-.92V13.42l-2.29-3.15h1.11L35,12.52l1.63-2.25h1.11Z"/><path class="cls-9" d="M38.65,10.27h1.17l1.55,2.58,1.54-2.58h1.18v5.6h-.92V11.56L41.7,14H41l-1.47-2.39v4.31h-.91Z"/><path class="cls-9" d="M45.8,10.27h1.72c1.18,0,1.9.63,1.9,1.62s-.72,1.61-1.9,1.61h-.81v2.37H45.8Zm.91.79v1.65h.85a.83.83,0,1,0,0-1.65Z"/><path class="cls-9" d="M50.51,10.27h.91v5.6h-.91Z"/><path class="cls-9" d="M57.24,14.32l.73.57a3,3,0,0,1-5.3-1.82A3,3,0,0,1,58,11.26l-.73.56A2,2,0,0,0,55.62,11a2,2,0,0,0-2,2.09,2,2,0,0,0,2,2.1A2,2,0,0,0,57.24,14.32Z"/><path class="cls-9" d="M59.33,14.48a1.65,1.65,0,0,0,1.31.73.77.77,0,0,0,.86-.79c0-1.12-2.61-.93-2.61-2.76a1.61,1.61,0,0,1,1.7-1.55,2.29,2.29,0,0,1,1.86.93l-.68.6a1.46,1.46,0,0,0-1.17-.71.71.71,0,0,0-.77.71c0,1.12,2.61.93,2.61,2.77A1.65,1.65,0,0,1,60.66,16a2.43,2.43,0,0,1-2-.94Z"/></g></g></svg>