<svg viewBox="0 0 70.28 24.57" xmlns="http://www.w3.org/2000/svg"><path d="m0 0h70.28v24.57h-70.28z" fill="#000091"/><circle cx="23.37" cy="9.73" fill="none" r="4.81" stroke="#fff" stroke-miterlimit="10"/><circle cx="29.05" cy="15.62" fill="none" r="4.81" stroke="#fff" stroke-miterlimit="10"/><circle cx="34.45" cy="9.52" fill="none" r="4.81" stroke="#fff" stroke-miterlimit="10"/><circle cx="40" cy="15.62" fill="none" r="4.81" stroke="#fff" stroke-miterlimit="10"/><circle cx="45.71" cy="9.73" fill="none" r="4.81" stroke="#fff" stroke-miterlimit="10"/><path d="m18.57 9.73a4.8 4.8 0 0 1 4.8-4.8" fill="none" stroke="#1480c3" stroke-linecap="round" stroke-linejoin="round"/><path d="m40 20.4a4.82 4.82 0 0 1 -4.81-4.81" fill="none" stroke="#00984c" stroke-linecap="round" stroke-linejoin="round"/><path d="m45.71 4.93a4.8 4.8 0 0 1 4.81 4.8" fill="none" stroke="#e33a55" stroke-linecap="round" stroke-linejoin="round"/><path d="m33.86 15.62a4.81 4.81 0 0 1 -4.81 4.81" fill="none" stroke="#f7ad33" stroke-linecap="round" stroke-linejoin="round"/><path d="m31.05 6.12a4.8 4.8 0 0 1 6.8 0" fill="none" stroke="#1d1d1b" stroke-linecap="round" stroke-linejoin="round"/><path d="m6.01 8.69h56.87v7.42h-56.87z" fill="#000091"/><g fill="#fff"><path d="m7.14 9.77h2.18a2.8 2.8 0 1 1 0 5.6h-2.18zm.91.84v3.92h1.27a2 2 0 1 0 0-3.92z"/><path d="m14.88 9.77h1.21l2.18 5.6h-1l-.59-1.57h-2.42l-.59 1.57h-1zm1.52 3.23-.92-2.42-.92 2.42z"/><path d="m18.16 9.77h4.52v.84h-1.8v4.76h-.88v-4.76h-1.8z"/><path d="m24.78 9.77h1.22l2.18 5.6h-1l-.59-1.57h-2.42l-.6 1.57h-1zm1.53 3.23-.92-2.42-.92 2.42z"/><path d="m29.22 9.77h.91v4.76h2.21v.84h-3.12z"/><path d="m35 12.92v2.45h-.92v-2.45l-2.3-3.15h1.11l1.64 2.23 1.63-2.25h1.11z"/><path d="m38.15 9.77h1.17l1.55 2.58 1.54-2.58h1.18v5.6h-.92v-4.31l-1.47 2.39h-.67l-1.47-2.39v4.31h-.91z"/><path d="m45.3 9.77h1.7c1.18 0 1.9.63 1.9 1.62s-.7 1.61-1.9 1.61h-.81v2.37h-.89zm.91.79v1.65h.85a.83.83 0 1 0 0-1.65z"/><path d="m50 9.77h.91v5.6h-.91z"/><path d="m56.74 13.82.73.57a3 3 0 0 1 -5.3-1.82 3 3 0 0 1 5.3-1.81l-.73.56a2 2 0 0 0 -1.62-.84 2 2 0 0 0 -2 2.09 2 2 0 0 0 2 2.1 2 2 0 0 0 1.62-.85z"/><path d="m58.83 14a1.65 1.65 0 0 0 1.31.73.77.77 0 0 0 .86-.79c0-1.12-2.61-.93-2.61-2.76a1.61 1.61 0 0 1 1.7-1.55 2.29 2.29 0 0 1 1.86.93l-.68.6a1.46 1.46 0 0 0 -1.17-.71.71.71 0 0 0 -.77.71c0 1.12 2.61.93 2.61 2.77a1.65 1.65 0 0 1 -1.78 1.62 2.43 2.43 0 0 1 -2-.94z"/></g></svg>