<svg xmlns="http://www.w3.org/2000/svg" viewBox="0 0 56.87 16.72"><defs><style>.cls-1,.cls-2,.cls-3,.cls-4,.cls-5,.cls-6{fill:none;}.cls-1{stroke:#000091;stroke-miterlimit:10;stroke-width:0.5px;}.cls-2{stroke:#1480c3;}.cls-2,.cls-3,.cls-4,.cls-5,.cls-6{stroke-linecap:round;stroke-linejoin:round;}.cls-3{stroke:#00984c;}.cls-4{stroke:#e33a55;}.cls-5{stroke:#f7ad33;}.cls-6{stroke:#1d1d1b;}.cls-7{fill:#fff;}.cls-8{fill:#000091;}</style></defs><g id="Calque_2" data-name="Calque 2"><g id="Calque_1-2" data-name="Calque 1"><circle class="cls-1" cx="17.36" cy="5.52" r="4.81"/><circle class="cls-1" cx="23.04" cy="11.41" r="4.81"/><circle class="cls-1" cx="28.44" cy="5.31" r="4.81"/><circle class="cls-1" cx="33.99" cy="11.41" r="4.81"/><circle class="cls-1" cx="39.7" cy="5.52" r="4.81"/><path class="cls-2" d="M12.55,5.52A4.82,4.82,0,0,1,17.36.71"/><path class="cls-3" d="M34,16.19a4.81,4.81,0,0,1-4.81-4.81"/><path class="cls-4" d="M39.7.71a4.81,4.81,0,0,1,4.81,4.81"/><path class="cls-5" d="M27.85,11.41A4.81,4.81,0,0,1,23,16.22"/><path class="cls-6" d="M25,1.91a4.79,4.79,0,0,1,6.79,0"/><rect class="cls-7" y="4.48" width="56.87" height="7.42"/><path class="cls-8" d="M1.13,5.56H3.3a2.8,2.8,0,1,1,0,5.6H1.13ZM2,6.4v3.92H3.31a2,2,0,1,0,0-3.92Z"/><path class="cls-8" d="M8.86,5.56h1.22l2.18,5.6h-1l-.6-1.57H8.25l-.59,1.57h-1Zm1.53,3.25L9.47,6.39,8.55,8.81Z"/><path class="cls-8" d="M12.15,5.56h4.51V6.4h-1.8v4.76h-.92V6.4H12.15Z"/><path class="cls-8" d="M18.77,5.56H20l2.19,5.6h-1L20.6,9.59H18.15l-.59,1.57h-1ZM20.3,8.81l-.92-2.42-.92,2.42Z"/><path class="cls-8" d="M23.21,5.56h.91v4.76h2.21v.84H23.21Z"/><path class="cls-8" d="M29,8.7v2.46h-.92V8.71L25.77,5.56h1.11l1.64,2.25,1.63-2.25h1.11Z"/><path class="cls-8" d="M32.14,5.56H33.3l1.56,2.58L36.4,5.56h1.17v5.6h-.92V6.85L35.19,9.24h-.67L33.05,6.85v4.31h-.91Z"/><path class="cls-8" d="M39.29,5.56H41c1.17,0,1.89.62,1.89,1.62S42.18,8.79,41,8.79H40.2v2.37h-.91Zm.91.79V8h.85a.79.79,0,0,0,.9-.84.79.79,0,0,0-.9-.81Z"/><path class="cls-8" d="M44,5.56h.91v5.6H44Z"/><path class="cls-8" d="M50.73,9.61l.73.57a3,3,0,0,1-5.31-1.82,3,3,0,0,1,5.31-1.81l-.73.56a2,2,0,0,0-1.63-.84,2,2,0,0,0-2,2.09,2,2,0,0,0,2,2.09A2,2,0,0,0,50.73,9.61Z"/><path class="cls-8" d="M52.82,9.77a1.64,1.64,0,0,0,1.31.72A.76.76,0,0,0,55,9.71c0-1.12-2.61-.93-2.61-2.76a1.6,1.6,0,0,1,1.7-1.55,2.25,2.25,0,0,1,1.85.93l-.67.6a1.47,1.47,0,0,0-1.17-.71.71.71,0,0,0-.78.71c0,1.12,2.62.93,2.62,2.77a1.66,1.66,0,0,1-1.79,1.62,2.41,2.41,0,0,1-2-.94Z"/></g></g></svg>