<svg height="89.828" viewBox="0 0 200 89.828" width="200" xmlns="http://www.w3.org/2000/svg"><path d="m129.379 60.046v7.654c0 3.723 2.221 5.715 5.472 5.715 3.29 0 5.492-1.993 5.492-5.832v-7.542h-1.487v7.659c0 2.877-1.541 4.345-3.966 4.345-2.5 0-4.024-1.6-4.024-4.437v-7.567h-1.487zm3.183-17.273v.068c0 6.692 4.724 11.81 11.907 11.81a14.651 14.651 0 0 0 9.579-3.577v-9.642h-9.774v3.509h5.871v4.3a9.37 9.37 0 0 1 -5.545 1.74c-4.69 0-7.805-3.48-7.805-8.2v-.071c0-4.393 3.212-8.1 7.446-8.1a9.008 9.008 0 0 1 6.43 2.459l2.556-3.052a12.393 12.393 0 0 0 -8.827-3.117 11.7 11.7 0 0 0 -11.838 11.873zm-19.2-38.55h-2.795v-1.079h2.433v-1.006h-2.425v-1.044h2.756v-1.007h-3.878v5.147h3.917zm-5.7-1.565v-.014a2.563 2.563 0 0 0 -2.729-2.557h-2.007v5.147h2.007a2.578 2.578 0 0 0 2.731-2.576zm-3.611-1.55h.875a1.477 1.477 0 0 1 1.55 1.55v.015a1.466 1.466 0 0 1 -1.55 1.536h-.875zm5.531 18.731v5.511h.622v-2.143h1.575l1.6 2.143h.763l-1.691-2.25a1.615 1.615 0 0 0 1.5-1.609v-.015a1.511 1.511 0 0 0 -.428-1.089 2.178 2.178 0 0 0 -1.57-.549zm3.733 1.662v.015c0 .71-.593 1.132-1.419 1.132h-1.691v-2.236h1.7c.895 0 1.411.408 1.411 1.088zm-12.46-21.414h-1.132v5.147h1.132zm27.182 24.781a2.627 2.627 0 0 1 -1.891-.782l-.384.457a3.236 3.236 0 0 0 2.25.88c1.093 0 1.881-.612 1.881-1.56v-.015c0-.841-.569-1.293-1.793-1.56s-1.5-.549-1.5-1.074v-.014c0-.5.457-.889 1.176-.889a2.407 2.407 0 0 1 1.589.6l.36-.481a2.882 2.882 0 0 0 -1.939-.676 1.63 1.63 0 0 0 -1.813 1.507v.015c0 .9.583 1.317 1.852 1.589 1.157.243 1.434.535 1.434 1.05v.015c.008.545-.483.939-1.221.939zm-27.527.481v-5.51h-.622v5.511zm23.221-5.511h-.622v5.512h.622zm-5.638-.044-2.513 5.55h.637l.656-1.458h3l.646 1.458h.671l-2.513-5.55zm-.977 3.528 1.259-2.8 1.254 2.8zm8.277 43.269a6.715 6.715 0 1 0 -13.428.039v.039a6.735 6.735 0 0 0 10.835 5.381l1.75 1.56 1.016-1.108-1.73-1.468a7.027 7.027 0 0 0 1.56-4.4v-.039zm-1.545.073a5.615 5.615 0 0 1 -1.108 3.441l-2.464-2.24-1 1.108 2.464 2.1a5.029 5.029 0 0 1 -3.047.977 5.234 5.234 0 0 1 -5.191-5.434v-.039a5.173 5.173 0 0 1 5.152-5.4 5.234 5.234 0 0 1 5.19 5.434v.049zm27.62-46.826h-1.915v5.512h1.915a2.762 2.762 0 0 0 2.931-2.756v-.014a2.745 2.745 0 0 0 -2.931-2.741zm2.284 2.77a2.135 2.135 0 0 1 -2.284 2.168h-1.293v-4.364h1.293a2.147 2.147 0 0 1 2.284 2.182v.015zm-46.117 50.6v-13.162h-1.487v13.166zm26.881-53.47a2.794 2.794 0 0 0 -2.819 2.853v.015a2.766 2.766 0 0 0 2.8 2.833 2.794 2.794 0 0 0 2.819-2.853v-.015a2.768 2.768 0 0 0 -2.8-2.83zm2.158 2.867a2.165 2.165 0 0 1 -2.158 2.26 2.192 2.192 0 0 1 -2.172-2.274v-.011a2.165 2.165 0 0 1 2.158-2.26 2.192 2.192 0 0 1 2.172 2.274zm6.906 2.741h.5v-5.507h-.608v4.418l-3.475-4.418h-.583v5.511h.607v-4.52zm-45.539-21.146h-2.566v-4.113h-1.132v5.147h3.7zm19.605 1.118a2.657 2.657 0 0 0 2.741-2.658v-.016a2.735 2.735 0 0 0 -5.468.015v.015a2.64 2.64 0 0 0 2.728 2.648zm-1.541-2.678a1.541 1.541 0 0 1 1.541-1.6 1.566 1.566 0 0 1 1.56 1.618v.015a1.542 1.542 0 0 1 -1.545 1.6 1.563 1.563 0 0 1 -1.56-1.618v-.011zm-.277 28.485-10.1 23.129h4.131l2.362-5.545h10.857l2.328 5.545h4.267l-10.1-23.129zm-2.128 14.01 3.937-9.185 3.971 9.185zm40.732 16.265v-1.359h-9.516v13.166h9.613v-1.356h-8.129v-4.608h7.183v-1.356h-7.183v-4.5h8.029zm-49.086-36.011 2.372-5.55h-.671l-1.968 4.748-1.959-4.748h-.69l2.367 5.55zm-48.43-.039h4.024v-.569h-3.4v-1.929h3.008v-.569h-3.01v-1.883h3.362v-.569h-3.984zm2.537-7.018-.787 1.016h.505l.9-.734zm-5.553 1.507v5.511h.622v-5.511zm-1.92 4.636-.408-.4a2.4 2.4 0 0 1 -1.779.8 2.174 2.174 0 0 1 -2.134-2.274v-.021a2.161 2.161 0 0 1 2.134-2.26 2.4 2.4 0 0 1 1.735.758l.423-.457a2.867 2.867 0 0 0 -2.148-.875 2.779 2.779 0 0 0 -2.79 2.853v.015a2.746 2.746 0 0 0 2.765 2.833 2.884 2.884 0 0 0 2.2-.972zm7.173 47.361h-7.413v-11.79h-1.487v13.166h8.894v-1.376zm5.9-46.486v-4.938h1.852v-.573h-4.33v.573h1.852v4.938zm-22.716.092a2.794 2.794 0 0 0 2.819-2.853v-.015a2.766 2.766 0 0 0 -2.8-2.833 2.794 2.794 0 0 0 -2.819 2.853v.015a2.766 2.766 0 0 0 2.804 2.833zm-2.158-2.867a2.165 2.165 0 0 1 2.158-2.26 2.192 2.192 0 0 1 2.172 2.274v.011a2.165 2.165 0 0 1 -2.158 2.26 2.192 2.192 0 0 1 -2.172-2.274zm120.528 31.682h17.193v-3.606h-13.16v-6.172h11.513v-3.606h-11.513v-5.973h12.991v-3.606h-17.024zm3.752-29.389a2.635 2.635 0 0 1 -1.891-.782l-.384.457a3.236 3.236 0 0 0 2.25.88c1.093 0 1.881-.612 1.881-1.56v-.015c0-.841-.569-1.293-1.793-1.56s-1.5-.549-1.5-1.074v-.014c0-.5.457-.889 1.171-.889a2.408 2.408 0 0 1 1.589.6l.365-.481a2.882 2.882 0 0 0 -1.939-.676 1.627 1.627 0 0 0 -1.813 1.507v.015c0 .9.583 1.317 1.852 1.589 1.157.243 1.434.535 1.434 1.05v.015c.007.545-.481.939-1.222.939zm-95.607.481h4.024v-.569h-3.4v-1.928h3.008v-.569h-3.01v-1.883h3.363v-.569h-3.985zm89.381 38.1v.039c0 2.163 1.39 3.14 4.418 3.8 2.765.583 3.421 1.278 3.421 2.5v.039c0 1.3-1.166 2.236-2.935 2.236a6.286 6.286 0 0 1 -4.515-1.861l-.923 1.089a7.7 7.7 0 0 0 5.38 2.1c2.615 0 4.5-1.468 4.5-3.723v-.039c0-2.012-1.356-3.086-4.287-3.723-2.9-.622-3.572-1.317-3.572-2.556v-.039c0-1.186 1.089-2.124 2.8-2.124a5.789 5.789 0 0 1 3.8 1.429l.865-1.147a6.859 6.859 0 0 0 -4.627-1.618c-2.503.005-4.325 1.531-4.325 3.597zm2.24-43.045v-.569h-3.985v5.511h4.024v-.569h-3.4v-1.93h3.008v-.569h-3.01v-1.878h3.363zm-89.084-2.07-.789 1.014h.505l.9-.734zm17.579 2.066v-.569h-3.985v5.511h4.024v-.569h-3.407v-1.926h3.008v-.569h-3.008v-1.878h3.363zm8.938 4.374h-3.106v-4.935h-.622v5.511h3.723zm-8.088-19.452a2.657 2.657 0 0 0 2.741-2.658v-.02a2.735 2.735 0 0 0 -5.468.015v.015a2.64 2.64 0 0 0 2.727 2.648zm-1.54-2.678a1.542 1.542 0 0 1 1.545-1.6 1.563 1.563 0 0 1 1.56 1.618v.015a1.542 1.542 0 0 1 -1.545 1.6 1.563 1.563 0 0 1 -1.56-1.618zm-4.588 1.662a2.35 2.35 0 0 1 -1.536-.627l-.671.8a3.283 3.283 0 0 0 2.182.821c1.108 0 1.891-.573 1.891-1.594v-.006c0-.9-.588-1.273-1.633-1.545-.889-.228-1.108-.34-1.108-.676v-.016c0-.248.228-.447.661-.447a2.4 2.4 0 0 1 1.337.505l.587-.85a2.981 2.981 0 0 0 -1.91-.656 1.608 1.608 0 0 0 -1.8 1.55v.015c0 1.021.671 1.307 1.706 1.575.86.219 1.035.369 1.035.656v.015c.002.295-.275.48-.741.48zm3.941 68.906v-13.166h-1.506l-4.8 7.183-4.8-7.183h-1.501v13.166h1.448v-10.644l4.8 7.032h.078l4.8-7.052v10.664zm9.7-13.166h-4.931v13.166h1.487v-4.647h3.2c2.8 0 5.171-1.468 5.171-4.306v-.039c.002-2.595-1.952-4.174-4.926-4.174zm3.426 4.267c0 1.73-1.429 2.9-3.611 2.9h-3.246v-5.797h3.329c2.124 0 3.538.977 3.538 2.858v.039zm-64.88-39.444a2.627 2.627 0 0 1 -1.891-.782l-.384.457a3.239 3.239 0 0 0 2.255.88c1.094 0 1.881-.612 1.881-1.56v-.015c0-.841-.569-1.293-1.8-1.56s-1.5-.549-1.5-1.074v-.015c0-.5.457-.889 1.171-.889a2.408 2.408 0 0 1 1.589.6l.365-.481a2.882 2.882 0 0 0 -1.939-.676 1.63 1.63 0 0 0 -1.813 1.507v.015c0 .9.583 1.317 1.852 1.589 1.157.243 1.434.535 1.434 1.05v.015c.009.545-.477.939-1.22.939zm46.69 29.389h4.033v-8h5.05l5.642 8h4.787l-6.192-8.695c3.183-.919 5.448-3.183 5.448-6.955v-.063a6.929 6.929 0 0 0 -1.905-4.952 9.247 9.247 0 0 0 -6.623-2.293h-10.235v22.957zm4.039-19.289h5.871c2.984 0 4.758 1.346 4.758 3.805v.068c0 2.328-1.837 3.839-4.724 3.839h-5.9zm-37 9.351v-13.026h-4.038v13.219c0 4.233-2.2 6.367-5.774 6.367-3.606 0-5.808-2.265-5.808-6.527v-13.059h-4.034v13.219c0 6.658 3.805 10.1 9.774 10.1 6.002.004 9.874-3.442 9.874-10.294zm-16.971 22.306v.039a6.715 6.715 0 1 0 13.428-.039v-.039a6.715 6.715 0 1 0 -13.428.039zm11.888 0v.039a5.173 5.173 0 0 1 -5.152 5.4 5.234 5.234 0 0 1 -5.191-5.434v-.039a5.173 5.173 0 0 1 5.152-5.4 5.234 5.234 0 0 1 5.191 5.434zm21.607 6.586v-5.23l5.47-7.936h-1.73l-4.47 6.585-4.437-6.585h-1.812l5.473 7.954v5.21zm16.763-50.618v-.014a2.748 2.748 0 0 0 -2.931-2.741h-1.915v5.511h1.915a2.762 2.762 0 0 0 2.931-2.756zm-4.223-2.182h1.293a2.147 2.147 0 0 1 2.284 2.182v.015a2.135 2.135 0 0 1 -2.284 2.168h-1.294zm-12.7 28.529-6.921-17.647h-4.461l9.545 23.129h3.577l9.516-23.129h-4.364zm126.63-8.088c-4.462-1.059-5.516-1.852-5.516-3.635v-.068c0-1.521 1.39-2.741 3.767-2.741a10.5 10.5 0 0 1 6.279 2.381l2.182-3.072a12.806 12.806 0 0 0 -8.393-2.906c-.049 0-.1 0-.146 0v-30.03h-65.841v3.5h62.335v27.2a6.385 6.385 0 0 0 -4.253 6.036v.068c0 4.262 2.775 5.715 7.7 6.906 4.3.991 5.22 1.886 5.22 3.538v.063c0 1.72-1.584 2.906-4.1 2.906a10.706 10.706 0 0 1 -7.3-3.008l-2.445 2.906a14.435 14.435 0 0 0 5.176 3v32.427h-174.196v-31.724a11.73 11.73 0 0 0 10.944-11.832v-.063a11.613 11.613 0 0 0 -10.944-11.766v-26.657h62.331v-3.5h-65.831v30.351a11.7 11.7 0 0 0 -9.569 11.64v.068a11.594 11.594 0 0 0 9.569 11.591v35.4h181.2v-35.264c.321.019.646.034.972.034 4.859-.002 8.259-2.575 8.259-6.902v-.068c0-3.838-2.513-5.588-7.4-6.779zm-188.367 1.92v-.063c0-4.462 3.183-8.1 7.742-8.1a7.868 7.868 0 0 1 7.805 8.17v.068a7.73 7.73 0 0 1 -7.742 8.068 7.843 7.843 0 0 1 -7.805-8.143z" fill="#00487e"/></svg>