<svg width="32" height="33" viewBox="0 0 32 33" fill="none" xmlns="http://www.w3.org/2000/svg">
<path d="M21.4425 27.0573C27.2732 27.0573 31.9998 22.3307 31.9998 16.5C31.9998 10.6694 27.2732 5.94275 21.4425 5.94275C15.6119 5.94275 10.8853 10.6694 10.8853 16.5C10.8853 22.3307 15.6119 27.0573 21.4425 27.0573Z" fill="#FBB040"/>
<path d="M16.6529 7.8866L1.94043 22.599C2.58956 23.5157 3.38136 24.3253 4.28372 24.9923L19.0461 10.2299C18.3791 9.32753 17.5695 8.53573 16.6529 7.8866Z" fill="#13477B"/>
<path d="M0.125 18.1336C0.321166 19.3962 0.74203 20.5839 1.34479 21.6539L15.7113 7.28742C14.6377 6.68466 13.4536 6.26379 12.191 6.06763L0.125 18.1336Z" fill="#13477B"/>
<path d="M10.7713 5.94988C10.7 5.94988 10.6286 5.94275 10.5573 5.94275C4.72581 5.94275 0 10.6686 0 16.5C0 16.5714 0.00356681 16.6427 0.00713347 16.714L10.7713 5.94988Z" fill="#13477B"/>
<path d="M20.8969 14.3672C20.6615 13.2187 20.2371 12.138 19.6593 11.1608L5.21436 25.6057C6.19518 26.1799 7.27231 26.6044 8.42078 26.8433L20.8969 14.3672Z" fill="#13477B"/>
<path d="M9.77637 27.0253C10.0332 27.0431 10.2935 27.0574 10.5539 27.0574C16.3854 27.0574 21.1112 22.3315 21.1112 16.5001C21.1112 16.2361 21.0969 15.9793 21.0791 15.7225L9.77637 27.0253Z" fill="#13477B"/>
</svg>
